<?xml version="1.0" encoding="utf-8"?>
<!-- Generator: Adobe Illustrator 26.0.1, SVG Export Plug-In . SVG Version: 6.00 Build 0)  -->
<svg version="1.1" id="Layer_1" xmlns="http://www.w3.org/2000/svg" xmlns:xlink="http://www.w3.org/1999/xlink" x="0px" y="0px"
	 viewBox="0 0 64 64" style="enable-background:new 0 0 64 64;" xml:space="preserve">
<path class="st0" fill="currentColor" d="M49.28,58.62c-0.43,0-0.87-0.1-1.27-0.31L32,49.89l-16.01,8.42c-0.4,0.21-0.83,0.31-1.27,0.31
	c-0.56,0-1.13-0.18-1.6-0.52c-0.84-0.61-1.26-1.64-1.08-2.66l3.06-17.83L2.14,24.98c-0.74-0.72-1.01-1.81-0.69-2.79
	c0.32-0.99,1.17-1.7,2.2-1.85l17.9-2.6l8-16.22C30.02,0.59,30.96,0,32,0c1.04,0,1.98,0.59,2.44,1.52l8,16.22l17.9,2.6
	c1.03,0.15,1.88,0.87,2.2,1.85c0.32,0.99,0.05,2.07-0.69,2.79L48.9,37.61l3.06,17.83c0.17,1.02-0.24,2.05-1.08,2.66
	C50.4,58.44,49.84,58.62,49.28,58.62z"/>
</svg>
